<svg xmlns="http://www.w3.org/2000/svg" xmlns:xlink="http://www.w3.org/1999/xlink" width="500" zoomAndPan="magnify" viewBox="0 0 375 374.999991" height="500" preserveAspectRatio="xMidYMid meet" version="1.0"><defs><g/><clipPath id="628b9aed00"><path d="M 10 32 L 19 32 L 19 40.5 L 10 40.5 Z M 10 32 " clip-rule="nonzero"/></clipPath><clipPath id="c5a53ff612"><path d="M 28 32 L 37 32 L 37 40.5 L 28 40.5 Z M 28 32 " clip-rule="nonzero"/></clipPath></defs><path fill="#f74e0a" d="M 11.128906 34.707031 C 17.90625 31.789062 29.617188 32.59375 35.792969 36.621094 C 38.042969 33.835938 37.269531 27.125 34.683594 26.351562 C 36.464844 19.539062 32.90625 4.976562 41.53125 4.503906 C 44.988281 8.195312 47.136719 0.0078125 41.632812 1.988281 C 30.257812 3.082031 34.222656 17.242188 31.566406 25.648438 C 22.035156 23.566406 6.058594 28.128906 9.316406 30.679688 C 18.777344 28.128906 30.457031 25.078125 34.683594 33.800781 C 29.988281 29.101562 12.605469 29.941406 11.128906 34.707031 Z M 11.128906 34.707031 " fill-opacity="1" fill-rule="nonzero"/><path fill="#f74e0a" d="M 11.832031 26.050781 C 4.28125 19.707031 -12.75 1.222656 32.269531 10.242188 C -0.851562 8.429688 3.476562 11.25 11.832031 26.050781 Z M 11.832031 26.050781 " fill-opacity="1" fill-rule="nonzero"/><path fill="#f74e0a" d="M 6.195312 15.980469 C 13.578125 13.53125 22.46875 12.59375 30.558594 14.171875 C 22.941406 13.632812 14.113281 15.511719 7 17.894531 Z M 6.195312 15.980469 " fill-opacity="1" fill-rule="nonzero"/><path fill="#f74e0a" d="M 8.609375 20.613281 L 9.71875 22.726562 C 14.71875 19.503906 21.632812 18.097656 28.746094 18.5 C 23.476562 15.78125 16.796875 16.789062 8.609375 20.613281 Z M 8.609375 20.613281 " fill-opacity="1" fill-rule="nonzero"/><path fill="#f74e0a" d="M 6.597656 10.847656 L 9.515625 9.539062 C 13.746094 14.640625 15.960938 19.941406 17.371094 25.445312 C 14.683594 20.277344 11.699219 15.613281 6.597656 10.847656 Z M 6.597656 10.847656 " fill-opacity="1" fill-rule="nonzero"/><path fill="#f74e0a" d="M 12.636719 9.035156 L 15.15625 8.933594 C 18.980469 13.566406 20.589844 18.296875 20.589844 23.128906 C 19.148438 18.433594 16.898438 13.734375 12.636719 9.035156 Z M 12.636719 9.035156 " fill-opacity="1" fill-rule="nonzero"/><path fill="#f74e0a" d="M 19.683594 9.136719 L 22.101562 9.238281 C 23.644531 13.230469 24.785156 17.023438 24.617188 21.21875 C 24.082031 16.988281 22.132812 13.261719 19.683594 9.136719 Z M 19.683594 9.136719 " fill-opacity="1" fill-rule="nonzero"/><path fill="#f74e0a" d="M 13.359375 32.984375 C 12.753906 32.992188 12.1875 33.167969 11.734375 33.519531 C 10.417969 34.542969 10.542969 36.695312 12.011719 38.328125 C 13.480469 39.957031 15.742188 40.453125 17.0625 39.429688 C 18.378906 38.40625 18.257812 36.25 16.789062 34.621094 C 15.824219 33.546875 14.515625 32.96875 13.359375 32.984375 Z M 14.398438 35.027344 C 14.902344 35.019531 15.476562 35.296875 15.898438 35.800781 C 16.542969 36.570312 16.597656 37.585938 16.019531 38.070312 C 15.441406 38.550781 14.449219 38.320312 13.804688 37.550781 C 13.164062 36.78125 13.109375 35.761719 13.6875 35.28125 C 13.882812 35.113281 14.132812 35.03125 14.398438 35.027344 Z M 14.398438 35.027344 " fill-opacity="1" fill-rule="nonzero"/><g clip-path="url(#628b9aed00)"><path stroke-linecap="round" transform="matrix(0.0355944, 0, 0, 0.0355944, 9.717913, 14.666673)" fill="none" stroke-linejoin="round" d="M 102.304331 514.623007 C 85.29411 514.842493 69.381324 519.780944 56.651094 529.657847 C 19.667583 558.410606 23.17937 618.879196 64.442873 664.751919 C 105.706375 710.514899 169.247778 724.452305 206.341033 695.699545 C 243.324544 666.946786 239.9225 606.368453 198.658998 560.605473 C 171.552389 530.42605 134.788364 514.184033 102.304331 514.623007 Z M 131.496064 572.018782 C 145.652957 571.799296 161.78523 579.591074 173.637513 593.747967 C 191.745167 615.367408 193.281574 643.900681 177.039557 657.508857 C 160.79754 671.00729 132.922727 664.532432 114.815073 642.912991 C 96.817163 621.29355 95.280756 592.650533 111.522773 579.152101 C 117.009941 574.433136 124.033515 572.128526 131.496064 572.018782 Z M 131.496064 572.018782 " stroke="#fffdff" stroke-width="9.127" stroke-opacity="1" stroke-miterlimit="4"/></g><path fill="#f74e0a" d="M 31.332031 32.984375 C 30.726562 32.992188 30.160156 33.167969 29.707031 33.519531 C 28.390625 34.542969 28.511719 36.695312 29.980469 38.328125 C 31.453125 39.957031 33.714844 40.453125 35.03125 39.429688 C 36.351562 38.40625 36.226562 36.25 34.757812 34.621094 C 33.792969 33.546875 32.488281 32.96875 31.332031 32.984375 Z M 32.367188 35.027344 C 32.875 35.019531 33.445312 35.296875 33.867188 35.800781 C 34.511719 36.570312 34.566406 37.585938 33.988281 38.070312 C 33.414062 38.550781 32.421875 38.320312 31.777344 37.550781 C 31.132812 36.78125 31.078125 35.761719 31.65625 35.28125 C 31.855469 35.113281 32.101562 35.03125 32.367188 35.027344 Z M 32.367188 35.027344 " fill-opacity="1" fill-rule="nonzero"/><g clip-path="url(#c5a53ff612)"><path stroke-linecap="round" transform="matrix(0.0355944, 0, 0, 0.0355944, 9.717913, 14.666673)" fill="none" stroke-linejoin="round" d="M 607.233515 514.623007 C 590.223295 514.842493 574.310508 519.780944 561.580279 529.657847 C 524.596768 558.410606 527.998812 618.879196 569.262314 664.751919 C 610.635559 710.514899 674.176963 724.452305 711.160474 695.699545 C 748.253729 666.946786 744.741941 606.368453 703.478439 560.605473 C 676.37183 530.42605 639.717549 514.184033 607.233515 514.623007 Z M 636.315505 572.018782 C 650.582141 571.799296 666.604671 579.591074 678.456954 593.747967 C 696.564608 615.367408 698.101015 643.900681 681.858998 657.508857 C 665.726725 671.00729 637.851912 664.532432 619.744258 642.912991 C 601.636604 621.29355 600.100197 592.650533 616.342214 579.152101 C 621.939125 574.433136 628.852957 572.128526 636.315505 572.018782 Z M 636.315505 572.018782 " stroke="#fffdff" stroke-width="9.127" stroke-opacity="1" stroke-miterlimit="4"/></g><g fill="#f74e0a" fill-opacity="1"><g transform="translate(44.257269, 22.959907)"><g><path d="M 9.90625 -8.109375 C 9.90625 -6.773438 9.515625 -5.742188 8.734375 -5.015625 C 7.953125 -4.296875 6.84375 -3.9375 5.40625 -3.9375 L 4.5 -3.9375 L 4.5 0 L 1.28125 0 L 1.28125 -11.890625 L 5.40625 -11.890625 C 6.90625 -11.890625 8.03125 -11.5625 8.78125 -10.90625 C 9.53125 -10.25 9.90625 -9.316406 9.90625 -8.109375 Z M 4.5 -6.5625 L 5.078125 -6.5625 C 5.566406 -6.5625 5.953125 -6.695312 6.234375 -6.96875 C 6.515625 -7.238281 6.65625 -7.613281 6.65625 -8.09375 C 6.65625 -8.894531 6.210938 -9.296875 5.328125 -9.296875 L 4.5 -9.296875 Z M 4.5 -6.5625 "/></g></g></g><g fill="#f74e0a" fill-opacity="1"><g transform="translate(54.777809, 22.959907)"><g><path d="M 4.453125 0 L 1.28125 0 L 1.28125 -11.890625 L 8.3125 -11.890625 L 8.3125 -9.3125 L 4.453125 -9.3125 L 4.453125 -7.046875 L 8.015625 -7.046875 L 8.015625 -4.46875 L 4.453125 -4.46875 Z M 4.453125 0 "/></g></g></g><g fill="#f74e0a" fill-opacity="1"><g transform="translate(63.753602, 22.959907)"><g><path d="M 8.578125 0 L 8 -2.234375 L 4.125 -2.234375 L 3.53125 0 L 0 0 L 3.875 -11.9375 L 8.171875 -11.9375 L 12.09375 0 Z M 7.328125 -4.859375 L 6.8125 -6.8125 C 6.695312 -7.25 6.550781 -7.8125 6.375 -8.5 C 6.207031 -9.1875 6.097656 -9.679688 6.046875 -9.984375 C 5.992188 -9.703125 5.894531 -9.242188 5.75 -8.609375 C 5.601562 -7.972656 5.285156 -6.722656 4.796875 -4.859375 Z M 7.328125 -4.859375 "/></g></g></g><g fill="#f74e0a" fill-opacity="1"><g transform="translate(75.843279, 22.959907)"><g><path d="M 6.578125 -9.421875 C 5.816406 -9.421875 5.21875 -9.109375 4.78125 -8.484375 C 4.351562 -7.859375 4.140625 -6.992188 4.140625 -5.890625 C 4.140625 -3.609375 5.015625 -2.46875 6.765625 -2.46875 C 7.285156 -2.46875 7.789062 -2.539062 8.28125 -2.6875 C 8.78125 -2.832031 9.28125 -3.007812 9.78125 -3.21875 L 9.78125 -0.5 C 8.78125 -0.0625 7.65625 0.15625 6.40625 0.15625 C 4.613281 0.15625 3.238281 -0.359375 2.28125 -1.390625 C 1.320312 -2.429688 0.84375 -3.9375 0.84375 -5.90625 C 0.84375 -7.144531 1.070312 -8.226562 1.53125 -9.15625 C 2 -10.09375 2.664062 -10.8125 3.53125 -11.3125 C 4.40625 -11.8125 5.429688 -12.0625 6.609375 -12.0625 C 7.898438 -12.0625 9.128906 -11.78125 10.296875 -11.21875 L 9.3125 -8.6875 C 8.875 -8.894531 8.429688 -9.066406 7.984375 -9.203125 C 7.546875 -9.347656 7.078125 -9.421875 6.578125 -9.421875 Z M 6.578125 -9.421875 "/></g></g></g><g fill="#f74e0a" fill-opacity="1"><g transform="translate(86.648377, 22.959907)"><g><path d="M 11.46875 0 L 8.25 0 L 8.25 -4.84375 L 4.515625 -4.84375 L 4.515625 0 L 1.28125 0 L 1.28125 -11.890625 L 4.515625 -11.890625 L 4.515625 -7.484375 L 8.25 -7.484375 L 8.25 -11.890625 L 11.46875 -11.890625 Z M 11.46875 0 "/></g></g></g><g fill="#f74e0a" fill-opacity="1"><g transform="translate(99.404735, 22.959907)"><g><path d="M 8.578125 0 L 8 -2.234375 L 4.125 -2.234375 L 3.53125 0 L 0 0 L 3.875 -11.9375 L 8.171875 -11.9375 L 12.09375 0 Z M 7.328125 -4.859375 L 6.8125 -6.8125 C 6.695312 -7.25 6.550781 -7.8125 6.375 -8.5 C 6.207031 -9.1875 6.097656 -9.679688 6.046875 -9.984375 C 5.992188 -9.703125 5.894531 -9.242188 5.75 -8.609375 C 5.601562 -7.972656 5.285156 -6.722656 4.796875 -4.859375 Z M 7.328125 -4.859375 "/></g></g></g><g fill="#f74e0a" fill-opacity="1"><g transform="translate(111.494412, 22.959907)"><g><path d="M 3.765625 -4.203125 L 1.078125 -4.203125 L 0.671875 -11.890625 L 4.1875 -11.890625 Z M 0.703125 -1.34375 C 0.703125 -1.84375 0.847656 -2.226562 1.140625 -2.5 C 1.429688 -2.769531 1.859375 -2.90625 2.421875 -2.90625 C 2.972656 -2.90625 3.390625 -2.769531 3.671875 -2.5 C 3.953125 -2.226562 4.09375 -1.84375 4.09375 -1.34375 C 4.09375 -0.863281 3.945312 -0.484375 3.65625 -0.203125 C 3.363281 0.0664062 2.953125 0.203125 2.421875 0.203125 C 1.878906 0.203125 1.457031 0.0664062 1.15625 -0.203125 C 0.851562 -0.484375 0.703125 -0.863281 0.703125 -1.34375 Z M 0.703125 -1.34375 "/></g></g></g><g fill="#f74e0a" fill-opacity="1"><g transform="translate(46.132614, 29.028435)"><g><path d="M 1.21875 0 L 1.078125 -0.453125 L 0.40625 -0.453125 L 0.265625 0 L 0.015625 0 L 0.59375 -1.78125 L 0.90625 -1.78125 L 1.46875 0 Z M 0.453125 -0.65625 L 1.015625 -0.65625 L 0.734375 -1.578125 Z M 0.453125 -0.65625 "/></g></g></g><g fill="#f74e0a" fill-opacity="1"><g transform="translate(49.684154, 29.028435)"><g><path d="M 1.046875 -0.9375 C 1.171875 -0.914062 1.269531 -0.875 1.34375 -0.8125 C 1.414062 -0.75 1.453125 -0.648438 1.453125 -0.515625 C 1.453125 -0.171875 1.21875 0 0.75 0 L 0.265625 0 L 0.265625 -1.78125 L 0.6875 -1.78125 C 0.90625 -1.78125 1.070312 -1.742188 1.1875 -1.671875 C 1.3125 -1.597656 1.375 -1.484375 1.375 -1.328125 C 1.375 -1.234375 1.34375 -1.148438 1.28125 -1.078125 C 1.21875 -1.003906 1.140625 -0.957031 1.046875 -0.9375 Z M 0.5 -1.59375 L 0.5 -1.03125 L 0.78125 -1.03125 C 0.882812 -1.03125 0.96875 -1.054688 1.03125 -1.109375 C 1.09375 -1.160156 1.125 -1.226562 1.125 -1.3125 C 1.125 -1.414062 1.085938 -1.488281 1.015625 -1.53125 C 0.953125 -1.570312 0.847656 -1.59375 0.703125 -1.59375 Z M 0.75 -0.203125 C 0.894531 -0.203125 1.003906 -0.222656 1.078125 -0.265625 C 1.160156 -0.304688 1.203125 -0.390625 1.203125 -0.515625 C 1.203125 -0.628906 1.164062 -0.710938 1.09375 -0.765625 C 1.019531 -0.816406 0.921875 -0.84375 0.796875 -0.84375 L 0.5 -0.84375 L 0.5 -0.203125 Z M 0.75 -0.203125 "/></g></g></g><g fill="#f74e0a" fill-opacity="1"><g transform="translate(53.326228, 29.028435)"><g><path d="M 0.703125 -1.8125 C 0.816406 -1.8125 0.914062 -1.796875 1 -1.765625 C 1.09375 -1.734375 1.175781 -1.679688 1.25 -1.609375 L 1.125 -1.453125 C 1.050781 -1.515625 0.984375 -1.554688 0.921875 -1.578125 C 0.859375 -1.597656 0.785156 -1.609375 0.703125 -1.609375 C 0.617188 -1.609375 0.546875 -1.585938 0.484375 -1.546875 C 0.421875 -1.503906 0.390625 -1.441406 0.390625 -1.359375 C 0.390625 -1.304688 0.398438 -1.257812 0.421875 -1.21875 C 0.441406 -1.1875 0.476562 -1.15625 0.53125 -1.125 C 0.59375 -1.101562 0.675781 -1.078125 0.78125 -1.046875 C 0.894531 -1.003906 0.988281 -0.960938 1.0625 -0.921875 C 1.132812 -0.890625 1.191406 -0.835938 1.234375 -0.765625 C 1.285156 -0.691406 1.3125 -0.601562 1.3125 -0.5 C 1.3125 -0.394531 1.285156 -0.300781 1.234375 -0.21875 C 1.179688 -0.144531 1.109375 -0.0820312 1.015625 -0.03125 C 0.921875 0.0078125 0.804688 0.03125 0.671875 0.03125 C 0.421875 0.03125 0.21875 -0.046875 0.0625 -0.203125 L 0.203125 -0.34375 C 0.273438 -0.289062 0.347656 -0.25 0.421875 -0.21875 C 0.492188 -0.1875 0.578125 -0.171875 0.671875 -0.171875 C 0.773438 -0.171875 0.863281 -0.195312 0.9375 -0.25 C 1.007812 -0.300781 1.046875 -0.378906 1.046875 -0.484375 C 1.046875 -0.546875 1.035156 -0.59375 1.015625 -0.625 C 0.992188 -0.664062 0.957031 -0.703125 0.90625 -0.734375 C 0.851562 -0.765625 0.773438 -0.796875 0.671875 -0.828125 C 0.484375 -0.890625 0.347656 -0.957031 0.265625 -1.03125 C 0.179688 -1.113281 0.140625 -1.21875 0.140625 -1.34375 C 0.140625 -1.4375 0.160156 -1.519531 0.203125 -1.59375 C 0.253906 -1.664062 0.320312 -1.71875 0.40625 -1.75 C 0.488281 -1.789062 0.585938 -1.8125 0.703125 -1.8125 Z M 0.703125 -1.8125 "/></g></g></g><g fill="#f74e0a" fill-opacity="1"><g transform="translate(56.805339, 29.028435)"><g><path d="M 0.890625 -1.8125 C 1.046875 -1.8125 1.179688 -1.773438 1.296875 -1.703125 C 1.410156 -1.640625 1.5 -1.535156 1.5625 -1.390625 C 1.625 -1.253906 1.65625 -1.085938 1.65625 -0.890625 C 1.65625 -0.703125 1.625 -0.535156 1.5625 -0.390625 C 1.5 -0.253906 1.410156 -0.148438 1.296875 -0.078125 C 1.179688 -0.00390625 1.046875 0.03125 0.890625 0.03125 C 0.742188 0.03125 0.613281 -0.00390625 0.5 -0.078125 C 0.382812 -0.148438 0.296875 -0.253906 0.234375 -0.390625 C 0.171875 -0.523438 0.140625 -0.691406 0.140625 -0.890625 C 0.140625 -1.078125 0.171875 -1.238281 0.234375 -1.375 C 0.296875 -1.519531 0.382812 -1.628906 0.5 -1.703125 C 0.613281 -1.773438 0.742188 -1.8125 0.890625 -1.8125 Z M 0.890625 -1.609375 C 0.734375 -1.609375 0.613281 -1.550781 0.53125 -1.4375 C 0.445312 -1.320312 0.40625 -1.140625 0.40625 -0.890625 C 0.40625 -0.640625 0.445312 -0.457031 0.53125 -0.34375 C 0.625 -0.226562 0.742188 -0.171875 0.890625 -0.171875 C 1.222656 -0.171875 1.390625 -0.410156 1.390625 -0.890625 C 1.390625 -1.367188 1.222656 -1.609375 0.890625 -1.609375 Z M 0.890625 -1.609375 "/></g></g></g><g fill="#f74e0a" fill-opacity="1"><g transform="translate(60.664697, 29.028435)"><g><path d="M 0.5 -1.78125 L 0.5 -0.21875 L 1.234375 -0.21875 L 1.21875 0 L 0.265625 0 L 0.265625 -1.78125 Z M 0.5 -1.78125 "/></g></g></g><g fill="#f74e0a" fill-opacity="1"><g transform="translate(64.022233, 29.028435)"><g><path d="M 1.484375 -0.578125 C 1.484375 -0.453125 1.457031 -0.34375 1.40625 -0.25 C 1.351562 -0.164062 1.28125 -0.0976562 1.1875 -0.046875 C 1.09375 0.00390625 0.984375 0.03125 0.859375 0.03125 C 0.660156 0.03125 0.503906 -0.0195312 0.390625 -0.125 C 0.285156 -0.238281 0.234375 -0.390625 0.234375 -0.578125 L 0.234375 -1.78125 L 0.484375 -1.78125 L 0.484375 -0.59375 C 0.484375 -0.457031 0.515625 -0.351562 0.578125 -0.28125 C 0.640625 -0.207031 0.734375 -0.171875 0.859375 -0.171875 C 0.984375 -0.171875 1.078125 -0.203125 1.140625 -0.265625 C 1.203125 -0.335938 1.234375 -0.445312 1.234375 -0.59375 L 1.234375 -1.78125 L 1.484375 -1.78125 Z M 1.484375 -0.578125 "/></g></g></g><g fill="#f74e0a" fill-opacity="1"><g transform="translate(67.80399, 29.028435)"><g><path d="M 1.3125 -1.78125 L 1.296875 -1.578125 L 0.796875 -1.578125 L 0.796875 0 L 0.546875 0 L 0.546875 -1.578125 L 0.03125 -1.578125 L 0.03125 -1.78125 Z M 1.3125 -1.78125 "/></g></g></g><g fill="#f74e0a" fill-opacity="1"><g transform="translate(71.210672, 29.028435)"><g><path d="M 1.234375 -1.78125 L 1.203125 -1.59375 L 0.5 -1.59375 L 0.5 -1 L 1.109375 -1 L 1.109375 -0.8125 L 0.5 -0.8125 L 0.5 -0.203125 L 1.25 -0.203125 L 1.25 0 L 0.265625 0 L 0.265625 -1.78125 Z M 1.234375 -1.78125 "/></g></g></g><g fill="#f74e0a" fill-opacity="1"><g transform="translate(74.663918, 29.028435)"><g/></g></g><g fill="#f74e0a" fill-opacity="1"><g transform="translate(77.418752, 29.028435)"><g><path d="M 0.890625 -1.8125 C 0.992188 -1.8125 1.082031 -1.796875 1.15625 -1.765625 C 1.226562 -1.742188 1.300781 -1.703125 1.375 -1.640625 L 1.25 -1.484375 C 1.132812 -1.566406 1.019531 -1.609375 0.90625 -1.609375 C 0.75 -1.609375 0.625 -1.550781 0.53125 -1.4375 C 0.445312 -1.332031 0.40625 -1.148438 0.40625 -0.890625 C 0.40625 -0.648438 0.445312 -0.46875 0.53125 -0.34375 C 0.625 -0.226562 0.742188 -0.171875 0.890625 -0.171875 C 0.972656 -0.171875 1.039062 -0.179688 1.09375 -0.203125 C 1.15625 -0.234375 1.21875 -0.273438 1.28125 -0.328125 L 1.40625 -0.171875 C 1.34375 -0.109375 1.269531 -0.0546875 1.1875 -0.015625 C 1.101562 0.015625 1.003906 0.03125 0.890625 0.03125 C 0.742188 0.03125 0.613281 -0.00390625 0.5 -0.078125 C 0.382812 -0.148438 0.296875 -0.253906 0.234375 -0.390625 C 0.171875 -0.535156 0.140625 -0.703125 0.140625 -0.890625 C 0.140625 -1.085938 0.171875 -1.253906 0.234375 -1.390625 C 0.304688 -1.535156 0.394531 -1.640625 0.5 -1.703125 C 0.613281 -1.773438 0.742188 -1.8125 0.890625 -1.8125 Z M 0.890625 -1.8125 "/></g></g></g><g fill="#f74e0a" fill-opacity="1"><g transform="translate(80.936665, 29.028435)"><g><path d="M 0.890625 -1.8125 C 1.046875 -1.8125 1.179688 -1.773438 1.296875 -1.703125 C 1.410156 -1.640625 1.5 -1.535156 1.5625 -1.390625 C 1.625 -1.253906 1.65625 -1.085938 1.65625 -0.890625 C 1.65625 -0.703125 1.625 -0.535156 1.5625 -0.390625 C 1.5 -0.253906 1.410156 -0.148438 1.296875 -0.078125 C 1.179688 -0.00390625 1.046875 0.03125 0.890625 0.03125 C 0.742188 0.03125 0.613281 -0.00390625 0.5 -0.078125 C 0.382812 -0.148438 0.296875 -0.253906 0.234375 -0.390625 C 0.171875 -0.523438 0.140625 -0.691406 0.140625 -0.890625 C 0.140625 -1.078125 0.171875 -1.238281 0.234375 -1.375 C 0.296875 -1.519531 0.382812 -1.628906 0.5 -1.703125 C 0.613281 -1.773438 0.742188 -1.8125 0.890625 -1.8125 Z M 0.890625 -1.609375 C 0.734375 -1.609375 0.613281 -1.550781 0.53125 -1.4375 C 0.445312 -1.320312 0.40625 -1.140625 0.40625 -0.890625 C 0.40625 -0.640625 0.445312 -0.457031 0.53125 -0.34375 C 0.625 -0.226562 0.742188 -0.171875 0.890625 -0.171875 C 1.222656 -0.171875 1.390625 -0.410156 1.390625 -0.890625 C 1.390625 -1.367188 1.222656 -1.609375 0.890625 -1.609375 Z M 0.890625 -1.609375 "/></g></g></g><g fill="#f74e0a" fill-opacity="1"><g transform="translate(84.796025, 29.028435)"><g><path d="M 1.515625 0 L 1.1875 0 L 0.453125 -1.515625 C 0.460938 -1.398438 0.46875 -1.289062 0.46875 -1.1875 C 0.476562 -1.082031 0.484375 -0.957031 0.484375 -0.8125 L 0.484375 0 L 0.265625 0 L 0.265625 -1.78125 L 0.578125 -1.78125 L 1.3125 -0.265625 C 1.3125 -0.304688 1.304688 -0.382812 1.296875 -0.5 C 1.285156 -0.613281 1.28125 -0.71875 1.28125 -0.8125 L 1.28125 -1.78125 L 1.515625 -1.78125 Z M 1.515625 0 "/></g></g></g><g fill="#f74e0a" fill-opacity="1"><g transform="translate(88.632104, 29.028435)"><g><path d="M 1.421875 -1.78125 L 0.859375 0 L 0.59375 0 L 0.015625 -1.78125 L 0.28125 -1.78125 L 0.734375 -0.265625 L 1.171875 -1.78125 Z M 1.421875 -1.78125 "/></g></g></g><g fill="#f74e0a" fill-opacity="1"><g transform="translate(92.13967, 29.028435)"><g><path d="M 1.234375 -1.78125 L 1.203125 -1.59375 L 0.5 -1.59375 L 0.5 -1 L 1.109375 -1 L 1.109375 -0.8125 L 0.5 -0.8125 L 0.5 -0.203125 L 1.25 -0.203125 L 1.25 0 L 0.265625 0 L 0.265625 -1.78125 Z M 1.234375 -1.78125 "/></g></g></g><g fill="#f74e0a" fill-opacity="1"><g transform="translate(95.592915, 29.028435)"><g><path d="M 1.515625 0 L 1.1875 0 L 0.453125 -1.515625 C 0.460938 -1.398438 0.46875 -1.289062 0.46875 -1.1875 C 0.476562 -1.082031 0.484375 -0.957031 0.484375 -0.8125 L 0.484375 0 L 0.265625 0 L 0.265625 -1.78125 L 0.578125 -1.78125 L 1.3125 -0.265625 C 1.3125 -0.304688 1.304688 -0.382812 1.296875 -0.5 C 1.285156 -0.613281 1.28125 -0.71875 1.28125 -0.8125 L 1.28125 -1.78125 L 1.515625 -1.78125 Z M 1.515625 0 "/></g></g></g><g fill="#f74e0a" fill-opacity="1"><g transform="translate(99.428994, 29.028435)"><g><path d="M 0.5 -1.78125 L 0.5 0 L 0.265625 0 L 0.265625 -1.78125 Z M 0.5 -1.78125 "/></g></g></g><g fill="#f74e0a" fill-opacity="1"><g transform="translate(102.261425, 29.028435)"><g><path d="M 1.234375 -1.78125 L 1.203125 -1.59375 L 0.5 -1.59375 L 0.5 -1 L 1.109375 -1 L 1.109375 -0.8125 L 0.5 -0.8125 L 0.5 -0.203125 L 1.25 -0.203125 L 1.25 0 L 0.265625 0 L 0.265625 -1.78125 Z M 1.234375 -1.78125 "/></g></g></g><g fill="#f74e0a" fill-opacity="1"><g transform="translate(105.714671, 29.028435)"><g><path d="M 1.515625 0 L 1.1875 0 L 0.453125 -1.515625 C 0.460938 -1.398438 0.46875 -1.289062 0.46875 -1.1875 C 0.476562 -1.082031 0.484375 -0.957031 0.484375 -0.8125 L 0.484375 0 L 0.265625 0 L 0.265625 -1.78125 L 0.578125 -1.78125 L 1.3125 -0.265625 C 1.3125 -0.304688 1.304688 -0.382812 1.296875 -0.5 C 1.285156 -0.613281 1.28125 -0.71875 1.28125 -0.8125 L 1.28125 -1.78125 L 1.515625 -1.78125 Z M 1.515625 0 "/></g></g></g><g fill="#f74e0a" fill-opacity="1"><g transform="translate(109.550747, 29.028435)"><g><path d="M 0.890625 -1.8125 C 0.992188 -1.8125 1.082031 -1.796875 1.15625 -1.765625 C 1.226562 -1.742188 1.300781 -1.703125 1.375 -1.640625 L 1.25 -1.484375 C 1.132812 -1.566406 1.019531 -1.609375 0.90625 -1.609375 C 0.75 -1.609375 0.625 -1.550781 0.53125 -1.4375 C 0.445312 -1.332031 0.40625 -1.148438 0.40625 -0.890625 C 0.40625 -0.648438 0.445312 -0.46875 0.53125 -0.34375 C 0.625 -0.226562 0.742188 -0.171875 0.890625 -0.171875 C 0.972656 -0.171875 1.039062 -0.179688 1.09375 -0.203125 C 1.15625 -0.234375 1.21875 -0.273438 1.28125 -0.328125 L 1.40625 -0.171875 C 1.34375 -0.109375 1.269531 -0.0546875 1.1875 -0.015625 C 1.101562 0.015625 1.003906 0.03125 0.890625 0.03125 C 0.742188 0.03125 0.613281 -0.00390625 0.5 -0.078125 C 0.382812 -0.148438 0.296875 -0.253906 0.234375 -0.390625 C 0.171875 -0.535156 0.140625 -0.703125 0.140625 -0.890625 C 0.140625 -1.085938 0.171875 -1.253906 0.234375 -1.390625 C 0.304688 -1.535156 0.394531 -1.640625 0.5 -1.703125 C 0.613281 -1.773438 0.742188 -1.8125 0.890625 -1.8125 Z M 0.890625 -1.8125 "/></g></g></g><g fill="#f74e0a" fill-opacity="1"><g transform="translate(113.068657, 29.028435)"><g><path d="M 1.234375 -1.78125 L 1.203125 -1.59375 L 0.5 -1.59375 L 0.5 -1 L 1.109375 -1 L 1.109375 -0.8125 L 0.5 -0.8125 L 0.5 -0.203125 L 1.25 -0.203125 L 1.25 0 L 0.265625 0 L 0.265625 -1.78125 Z M 1.234375 -1.78125 "/></g></g></g></svg>